{
  "accessors": [
    {
      "bufferView": 2,
      "componentType": 5126,
      "count": 1088,
      "max": [
        5.195197105407715,
        8.84306812286377,
        5.270966529846191
      ],
      "min": [
        -4.9469523429870605,
        0.3454735279083252,
        -5.307840347290039
      ],
      "type": "VEC3"
    },
    {
      "bufferView": 2,
      "byteOffset": 13056,
      "componentType": 5126,
      "count": 1088,
      "max": [
        0.9788055419921875,
        0.9992663860321045,
        0.9148091673851013
      ],
      "min": [
        -0.9945057034492493,
        -0.352110892534256,
        -0.9817277789115906
      ],
      "type": "VEC3"
    },
    {
      "bufferView": 1,
      "componentType": 5126,
      "count": 1088,
      "max": [
        0.886157751083374,
        0.39731264114379883
      ],
      "min": [
        -2.663103959577029e-09,
        0.10768431425094604
      ],
      "type": "VEC2"
    },
    {
      "bufferView": 1,
      "byteOffset": 8704,
      "componentType": 5126,
      "count": 1088,
      "max": [
        0.898386538028717,
        1.0
      ],
      "min": [
        0.10161352157592773,
        0.0
      ],
      "type": "VEC2"
    },
    {
      "bufferView": 1,
      "byteOffset": 17408,
      "componentType": 5126,
      "count": 1088,
      "max": [
        0.0,
        1.0
      ],
      "min": [
        0.0,
        1.0
      ],
      "type": "VEC2"
    },
    {
      "bufferView": 1,
      "byteOffset": 26112,
      "componentType": 5126,
      "count": 1088,
      "max": [
        0.886157751083374,
        0.39731264114379883
      ],
      "min": [
        -2.663103959577029e-09,
        0.10768431425094604
      ],
      "type": "VEC2"
    },
    {
      "bufferView": 0,
      "componentType": 5125,
      "count": 1632,
      "type": "SCALAR"
    },
    {
      "bufferView": 2,
      "byteOffset": 26112,
      "componentType": 5126,
      "count": 3036,
      "max": [
        3.351228952407837,
        7.109778881072998,
        3.7859573364257813
      ],
      "min": [
        -3.267732858657837,
        0.0,
        -3.4372124671936035
      ],
      "type": "VEC3"
    },
    {
      "bufferView": 2,
      "byteOffset": 62544,
      "componentType": 5126,
      "count": 3036,
      "max": [
        0.9997422099113464,
        0.9994059205055237,
        0.9997308254241943
      ],
      "min": [
        -0.9997959733009338,
        -0.9999724626541138,
        -0.9997178316116333
      ],
      "type": "VEC3"
    },
    {
      "bufferView": 1,
      "byteOffset": 34816,
      "componentType": 5126,
      "count": 3036,
      "max": [
        0.9007279276847839,
        0.40495169162750244
      ],
      "min": [
        0.02325051836669445,
        0.09745866060256958
      ],
      "type": "VEC2"
    },
    {
      "bufferView": 1,
      "byteOffset": 59104,
      "componentType": 5126,
      "count": 3036,
      "max": [
        10.868108749389648,
        12.672883987426758
      ],
      "min": [
        -9.821298599243164,
        -11.543352127075195
      ],
      "type": "VEC2"
    },
    {
      "bufferView": 1,
      "byteOffset": 83392,
      "componentType": 5126,
      "count": 3036,
      "max": [
        0.0,
        1.0
      ],
      "min": [
        0.0,
        1.0
      ],
      "type": "VEC2"
    },
    {
      "bufferView": 1,
      "byteOffset": 107680,
      "componentType": 5126,
      "count": 3036,
      "max": [
        0.9007279276847839,
        0.40495169162750244
      ],
      "min": [
        0.02325051836669445,
        0.09745866060256958
      ],
      "type": "VEC2"
    },
    {
      "bufferView": 0,
      "byteOffset": 6528,
      "componentType": 5125,
      "count": 6552,
      "type": "SCALAR"
    },
    {
      "bufferView": 2,
      "byteOffset": 98976,
      "componentType": 5126,
      "count": 12263,
      "max": [
        22.77646827697754,
        10.006213188171387,
        22.77646827697754
      ],
      "min": [
        -22.77646827697754,
        -0.7180694341659546,
        -22.77646827697754
      ],
      "type": "VEC3"
    },
    {
      "bufferView": 2,
      "byteOffset": 246132,
      "componentType": 5126,
      "count": 12263,
      "max": [
        1.0,
        1.0,
        1.0
      ],
      "min": [
        -1.0,
        -1.0,
        -1.0
      ],
      "type": "VEC3"
    },
    {
      "bufferView": 1,
      "byteOffset": 131968,
      "componentType": 5126,
      "count": 12263,
      "max": [
        1.0,
        1.0
      ],
      "min": [
        9.381102117345108e-09,
        0.09587758779525757
      ],
      "type": "VEC2"
    },
    {
      "bufferView": 1,
      "byteOffset": 230072,
      "componentType": 5126,
      "count": 12263,
      "max": [
        1.004341959953308,
        1.0
      ],
      "min": [
        -0.0003503561019897461,
        -0.023308157920837402
      ],
      "type": "VEC2"
    },
    {
      "bufferView": 1,
      "byteOffset": 328176,
      "componentType": 5126,
      "count": 12263,
      "max": [
        4.766628265380859,
        4.1893510818481445
      ],
      "min": [
        -3.7328600883483887,
        -3.9270777702331543
      ],
      "type": "VEC2"
    },
    {
      "bufferView": 1,
      "byteOffset": 426280,
      "componentType": 5126,
      "count": 12263,
      "max": [
        1.0,
        1.0
      ],
      "min": [
        9.381102117345108e-09,
        0.09587758779525757
      ],
      "type": "VEC2"
    },
    {
      "bufferView": 0,
      "byteOffset": 32736,
      "componentType": 5125,
      "count": 43914,
      "type": "SCALAR"
    }
  ],
  "asset": {
    "extras": {
      "author": "abhayexe (https://sketchfab.com/abhayexe)",
      "license": "SKETCHFAB Standard (https://sketchfab.com/licenses)",
      "source": "https://sketchfab.com/3d-models/environment-vr-room-baked-10120500b5e041cba97ca45f8625222b",
      "title": "Environment VR room [Baked]"
    },
    "generator": "Sketchfab-17.1.0",
    "version": "2.0"
  },
  "bufferViews": [
    {
      "buffer": 0,
      "byteLength": 208392,
      "name": "floatBufferViews",
      "target": 34963
    },
    {
      "buffer": 0,
      "byteLength": 524384,
      "byteOffset": 208392,
      "byteStride": 8,
      "name": "floatBufferViews",
      "target": 34962
    },
    {
      "buffer": 0,
      "byteLength": 393288,
      "byteOffset": 732776,
      "byteStride": 12,
      "name": "floatBufferViews",
      "target": 34962
    }
  ],
  "buffers": [
    {
      "byteLength": 1126064,
      "uri": "scene.bin"
    }
  ],
  "images": [
    {
      "uri": "textures/Material_baseColor.png"
    },
    {
      "uri": "textures/Material_emissive.png"
    }
  ],
  "materials": [
    {
      "alphaMode": "BLEND",
      "doubleSided": true,
      "emissiveFactor": [
        1.0,
        1.0,
        1.0
      ],
      "emissiveTexture": {
        "index": 1
      },
      "name": "Material",
      "pbrMetallicRoughness": {
        "baseColorTexture": {
          "index": 0
        },
        "metallicFactor": 0.0,
        "roughnessFactor": 0.5
      }
    },
    {
      "doubleSided": true,
      "emissiveFactor": [
        1.0,
        1.0,
        1.0
      ],
      "emissiveTexture": {
        "index": 1
      },
      "name": "Material.001",
      "pbrMetallicRoughness": {
        "baseColorTexture": {
          "index": 1
        },
        "metallicFactor": 0.0,
        "roughnessFactor": 0.5
      }
    },
    {
      "doubleSided": true,
      "emissiveFactor": [
        1.0,
        1.0,
        1.0
      ],
      "emissiveTexture": {
        "index": 1
      },
      "name": "Concrete.003",
      "pbrMetallicRoughness": {
        "baseColorTexture": {
          "index": 1
        },
        "metallicFactor": 0.0,
        "roughnessFactor": 0.5
      }
    }
  ],
  "meshes": [
    {
      "name": "Object_0",
      "primitives": [
        {
          "attributes": {
            "NORMAL": 1,
            "POSITION": 0,
            "TEXCOORD_0": 2,
            "TEXCOORD_1": 3,
            "TEXCOORD_2": 4,
            "TEXCOORD_3": 5
          },
          "indices": 6,
          "material": 0,
          "mode": 4
        }
      ]
    },
    {
      "name": "Object_1",
      "primitives": [
        {
          "attributes": {
            "NORMAL": 8,
            "POSITION": 7,
            "TEXCOORD_0": 9,
            "TEXCOORD_1": 10,
            "TEXCOORD_2": 11,
            "TEXCOORD_3": 12
          },
          "indices": 13,
          "material": 1,
          "mode": 4
        }
      ]
    },
    {
      "name": "Object_2",
      "primitives": [
        {
          "attributes": {
            "NORMAL": 15,
            "POSITION": 14,
            "TEXCOORD_0": 16,
            "TEXCOORD_1": 17,
            "TEXCOORD_2": 18,
            "TEXCOORD_3": 19
          },
          "indices": 20,
          "material": 2,
          "mode": 4
        }
      ]
    }
  ],
  "nodes": [
    {
      "children": [
        1
      ],
      "matrix": [
        1.0,
        0.0,
        0.0,
        0.0,
        0.0,
        2.220446049250313e-16,
        -1.0,
        0.0,
        0.0,
        1.0,
        2.220446049250313e-16,
        0.0,
        0.0,
        0.0,
        0.0,
        1.0
      ],
      "name": "Sketchfab_model"
    },
    {
      "children": [
        2
      ],
      "name": "root"
    },
    {
      "children": [
        3
      ],
      "matrix": [
        1.0,
        0.0,
        0.0,
        0.0,
        0.0,
        2.220446049250313e-16,
        1.0,
        0.0,
        0.0,
        -1.0,
        2.220446049250313e-16,
        0.0,
        0.0,
        0.0,
        0.0,
        1.0
      ],
      "name": "GLTF_SceneRootNode"
    },
    {
      "children": [
        4,
        5,
        6
      ],
      "matrix": [
        0.3204617500305176,
        0.0,
        0.0,
        0.0,
        0.0,
        0.3204617500305176,
        0.0,
        0.0,
        0.0,
        0.0,
        0.3204617500305176,
        0.0,
        0.0,
        0.0,
        0.0,
        1.0
      ],
      "name": "leaves_0"
    },
    {
      "mesh": 0,
      "name": "Object_4"
    },
    {
      "mesh": 1,
      "name": "Object_5"
    },
    {
      "mesh": 2,
      "name": "Object_6"
    }
  ],
  "samplers": [
    {
      "magFilter": 9729,
      "minFilter": 9987,
      "wrapS": 10497,
      "wrapT": 10497
    }
  ],
  "scene": 0,
  "scenes": [
    {
      "name": "Sketchfab_Scene",
      "nodes": [
        0
      ]
    }
  ],
  "textures": [
    {
      "sampler": 0,
      "source": 0
    },
    {
      "sampler": 0,
      "source": 1
    }
  ]
}
